<?xml version="1.0" standalone="no"?>
<!DOCTYPE svg PUBLIC "-//W3C//DTD SVG 20010904//EN"
 "http://www.w3.org/TR/2001/REC-SVG-20010904/DTD/svg10.dtd">
<svg version="1.0" xmlns="http://www.w3.org/2000/svg"
 width="700.000000pt" height="700.000000pt" viewBox="0 0 700.000000 700.000000"
 preserveAspectRatio="xMidYMid meet">
<metadata>
Created by potrace 1.14, written by Peter Selinger 2001-2017
</metadata>
<g transform="translate(0.000000,700.000000) scale(0.100000,-0.100000)"
fill="#000000" stroke="none">
<path d="M3298 6915 c-2 -1 -42 -5 -89 -8 -47 -4 -119 -12 -160 -18 l-75 -11
-23 -106 c-12 -59 -41 -194 -64 -301 l-43 -194 -85 -23 c-46 -12 -124 -36
-174 -53 l-89 -31 -49 47 c-27 27 -124 123 -215 215 -92 92 -172 168 -178 168
-11 0 -167 -77 -212 -105 -10 -5 -44 -26 -77 -44 -153 -89 -407 -274 -400
-294 2 -6 45 -138 95 -291 l91 -280 -64 -65 c-64 -66 -124 -132 -168 -184
l-24 -28 -205 55 c-425 114 -387 106 -403 87 -45 -53 -203 -322 -256 -436 -48
-101 -83 -181 -100 -226 -18 -46 -18 -47 3 -65 30 -25 205 -183 243 -219 17
-16 68 -61 112 -100 62 -54 79 -75 75 -90 -3 -11 -16 -61 -29 -112 -13 -50
-27 -115 -30 -144 -3 -28 -10 -60 -15 -69 -6 -11 -62 -31 -162 -60 -84 -23
-187 -53 -228 -65 -41 -12 -103 -30 -137 -40 -35 -10 -63 -21 -64 -24 0 -3 -3
-15 -5 -26 -9 -35 -11 -467 -4 -540 4 -38 11 -99 14 -135 13 -134 6 -124 104
-144 48 -10 116 -24 152 -32 36 -8 132 -30 214 -48 l149 -32 23 -85 c13 -46
37 -124 53 -173 17 -49 30 -91 28 -92 -1 -2 -98 -100 -214 -217 -117 -118
-213 -220 -213 -226 0 -25 126 -253 218 -396 25 -38 83 -121 130 -183 63 -86
88 -112 101 -107 9 3 99 33 201 66 102 33 225 74 274 90 58 19 92 26 100 20 6
-5 40 -38 76 -73 36 -35 92 -87 124 -115 l60 -53 -28 -107 c-15 -60 -29 -115
-31 -123 -2 -8 -23 -95 -48 -192 -41 -162 -43 -178 -28 -191 26 -22 150 -100
231 -146 41 -23 82 -46 90 -51 40 -23 195 -97 286 -135 l100 -43 25 28 c13 16
42 48 64 72 22 23 76 83 120 133 44 49 89 99 100 110 11 12 34 37 50 56 54 60
54 60 126 39 35 -10 111 -29 169 -40 58 -12 108 -24 111 -28 6 -6 133 -434
144 -483 16 -72 30 -100 54 -106 35 -9 460 -9 546 0 39 4 99 10 134 14 34 3
75 8 89 12 29 8 22 -14 107 346 67 287 53 258 138 280 39 10 117 33 171 51 55
19 101 32 103 31 1 -1 99 -98 216 -215 118 -116 220 -212 228 -212 12 0 190
93 288 151 88 51 384 259 395 277 2 4 -6 39 -19 77 -12 39 -55 169 -94 290
l-72 221 78 79 c43 44 99 105 125 135 l48 54 217 -54 c250 -62 232 -57 259
-64 12 -2 39 -9 60 -15 22 -6 45 -11 51 -11 33 0 310 488 348 610 4 14 11 30
15 35 4 6 12 25 18 43 11 31 9 35 -21 62 -38 33 -75 67 -142 129 -27 25 -90
82 -139 126 -49 44 -101 90 -114 102 -24 22 -25 44 -6 108 9 29 25 94 29 120
3 17 14 59 24 95 l18 65 289 83 c159 46 293 88 299 93 18 18 11 572 -9 699 -3
14 -7 45 -10 69 -3 24 -7 45 -8 46 -2 1 -39 9 -83 19 -116 24 -112 23 -215 46
-52 11 -142 31 -199 43 l-103 22 -38 130 c-21 72 -45 150 -54 175 l-17 44 78
79 c43 43 142 142 220 220 l141 141 -59 113 c-90 173 -182 319 -302 480 -60
80 -83 103 -95 98 -15 -6 -79 -27 -462 -151 l-104 -34 -61 59 c-90 88 -136
130 -173 159 -35 27 -36 35 -18 107 3 11 34 135 70 275 36 140 64 255 63 256
-1 0 -40 26 -87 56 -168 109 -334 198 -534 284 l-100 43 -24 -27 c-37 -39
-241 -259 -286 -306 -21 -23 -48 -52 -60 -66 -51 -58 -59 -62 -104 -46 -22 8
-53 17 -69 19 -15 3 -57 12 -93 21 -36 8 -83 18 -105 22 -22 3 -40 7 -41 7 0
1 -15 54 -33 117 -18 63 -43 153 -57 200 -14 47 -27 94 -29 105 -11 47 -48
161 -56 169 -7 8 -482 19 -491 11z m467 -1464 c152 -24 315 -63 380 -90 11 -5
47 -19 80 -32 79 -29 264 -123 327 -165 28 -19 54 -34 59 -34 5 0 9 -4 9 -8 0
-4 13 -16 30 -25 16 -10 35 -23 42 -30 7 -7 36 -30 63 -52 197 -157 386 -397
511 -650 189 -386 241 -766 168 -1235 -2 -19 -7 -42 -10 -50 -3 -8 -8 -28 -11
-45 -19 -119 -158 -449 -244 -580 -98 -150 -155 -221 -279 -345 -244 -244
-532 -414 -858 -504 -105 -29 -167 -42 -302 -62 -14 -2 -97 -6 -185 -8 -265
-7 -490 30 -733 120 -82 31 -275 124 -331 159 -9 6 -36 23 -61 39 -217 140
-426 352 -585 596 -130 199 -255 534 -281 755 -3 22 -7 51 -11 65 -3 14 -7 97
-8 185 -6 355 59 640 218 950 43 84 165 278 186 295 3 3 20 23 36 45 88 118
308 313 473 419 218 139 524 253 762 283 25 3 65 9 90 13 66 10 383 4 465 -9z"/>
<path d="M3395 5017 c-44 -15 -111 -49 -135 -69 -8 -7 -30 -32 -48 -55 -40
-51 -1007 -1983 -1018 -2033 -27 -129 18 -255 130 -358 65 -60 125 -84 221
-89 110 -7 155 11 357 143 92 60 202 131 245 158 43 28 115 74 161 104 131 85
181 98 262 69 19 -7 186 -109 370 -227 191 -122 359 -222 390 -233 74 -25 185
-20 254 13 96 46 201 169 222 261 12 53 5 157 -15 205 -20 53 -493 1003 -800
1609 -201 396 -220 424 -336 481 -68 33 -193 43 -260 21z"/>
</g>
</svg>
