<svg xmlns="http://www.w3.org/2000/svg" version="1.1" xmlns:xlink="http://www.w3.org/1999/xlink" xmlns:svgjs="http://svgjs.com/svgjs" width="1000" height="1000"><rect width="1000" height="1000" rx="200" ry="200" fill="#edeff0"></rect><g transform="matrix(25,0,0,25,99.95256924629211,100.12251543998718)"><svg xmlns="http://www.w3.org/2000/svg" version="1.1" xmlns:xlink="http://www.w3.org/1999/xlink" xmlns:svgjs="http://svgjs.com/svgjs" width="32" height="32"><svg xmlns="http://www.w3.org/2000/svg" viewBox="0 0 32 32"><path fill="#027be3" d="M28.86,18.13l2.71-.78a15.51,15.51,0,0,0-.12-3.75L28.69,13a12.73,12.73,0,0,0-.49-1.6l2-2a15.78,15.78,0,0,0-2-3.18l-2.68.87a13.07,13.07,0,0,0-1.22-1.14L25,3.19a15.49,15.49,0,0,0-3.31-1.76L19.75,3.52c-.39-.12-.79-.22-1.2-.3l-.42-.07L17.35.43A15.53,15.53,0,0,0,13.6.55L13,3.31a12.79,12.79,0,0,0-1.6.49l-2-2a15.7,15.7,0,0,0-3.18,2l.87,2.68A12.9,12.9,0,0,0,5.92,7.73L3.19,7a15.48,15.48,0,0,0-1.76,3.31l2.09,1.89c-.12.39-.22.79-.3,1.2,0,.14-.05.28-.07.42l-2.71.78A15.59,15.59,0,0,0,.55,18.4L3.31,19a13,13,0,0,0,.49,1.6l-2,2a15.67,15.67,0,0,0,2,3.18l2.68-.87a12.82,12.82,0,0,0,1.22,1.14L7,28.81a15.56,15.56,0,0,0,3.31,1.76l1.89-2.09c.39.12.79.22,1.2.3l.42.07.78,2.71a15.56,15.56,0,0,0,3.75-.12L19,28.69a13,13,0,0,0,1.6-.49l2,2a15.72,15.72,0,0,0,3.18-2l-.87-2.68a13.3,13.3,0,0,0,1.14-1.22l2.73.68a15.49,15.49,0,0,0,1.76-3.31l-2.09-1.89c.12-.39.22-.79.3-1.2C28.81,18.41,28.83,18.27,28.86,18.13ZM16,25a9,9,0,1,1,9-9A9,9,0,0,1,16,25Z"></path><path fill="#027be3" d="M14.78,9.49a1.73,1.73,0,0,1,2.72.4c.51,1,1,2,1.48,2.94,1,1.91,1.9,3.81,2.86,5.72a1.63,1.63,0,0,1-.45,2,1.6,1.6,0,0,1-1.87.25c-.19-.1-.37-.23-.55-.35L16.6,18.94a1,1,0,0,0-1.19,0c-.93.59-1.86,1.18-2.78,1.79a1.67,1.67,0,0,1-2.26-.43,1.6,1.6,0,0,1-.16-1.84q1.84-3.65,3.65-7.3c.2-.4.39-.79.59-1.18C14.55,9.8,14.67,9.65,14.78,9.49Z"></path></svg></svg></g></svg>